<svg xmlns="http://www.w3.org/2000/svg" xmlns:xlink="http://www.w3.org/1999/xlink" width="2000" zoomAndPan="magnify" viewBox="0 0 1500 1499.999933" height="2000" preserveAspectRatio="xMidYMid meet" version="1.0"><defs><g/><clipPath id="7828e6431e"><path d="M 450 252.925781 L 1050 252.925781 L 1050 852.925781 L 450 852.925781 Z M 450 252.925781 " clip-rule="nonzero"/></clipPath></defs><g clip-path="url(#7828e6431e)"><path fill="#3d358b" d="M 1050 552.925781 C 1050 557.835938 1049.878906 562.742188 1049.636719 567.644531 C 1049.398438 572.550781 1049.035156 577.445312 1048.554688 582.332031 C 1048.074219 587.214844 1047.472656 592.085938 1046.753906 596.945312 C 1046.03125 601.800781 1045.195312 606.636719 1044.234375 611.453125 C 1043.277344 616.265625 1042.203125 621.054688 1041.007812 625.820312 C 1039.816406 630.582031 1038.507812 635.3125 1037.082031 640.011719 C 1035.65625 644.707031 1034.117188 649.371094 1032.464844 653.992188 C 1030.808594 658.613281 1029.042969 663.195312 1027.164062 667.730469 C 1025.285156 672.265625 1023.296875 676.753906 1021.195312 681.191406 C 1019.097656 685.628906 1016.890625 690.015625 1014.578125 694.34375 C 1012.261719 698.675781 1009.84375 702.945312 1007.320312 707.15625 C 1004.792969 711.367188 1002.167969 715.515625 999.441406 719.597656 C 996.714844 723.679688 993.886719 727.691406 990.960938 731.632812 C 988.039062 735.578125 985.019531 739.449219 981.902344 743.242188 C 978.789062 747.039062 975.582031 750.753906 972.285156 754.394531 C 968.988281 758.03125 965.605469 761.585938 962.132812 765.058594 C 958.660156 768.527344 955.105469 771.914062 951.46875 775.210938 C 947.828125 778.507812 944.113281 781.714844 940.316406 784.828125 C 936.523438 787.941406 932.652344 790.960938 928.710938 793.886719 C 924.765625 796.8125 920.753906 799.636719 916.671875 802.367188 C 912.589844 805.09375 908.441406 807.71875 904.230469 810.242188 C 900.019531 812.769531 895.75 815.1875 891.417969 817.5 C 887.089844 819.816406 882.703125 822.023438 878.265625 824.121094 C 873.828125 826.222656 869.339844 828.210938 864.804688 830.089844 C 860.269531 831.96875 855.691406 833.734375 851.066406 835.386719 C 846.445312 837.042969 841.785156 838.582031 837.085938 840.007812 C 832.386719 841.433594 827.65625 842.742188 822.894531 843.933594 C 818.132812 845.128906 813.34375 846.203125 808.527344 847.160156 C 803.710938 848.117188 798.875 848.957031 794.019531 849.679688 C 789.164062 850.398438 784.292969 851 779.40625 851.480469 C 774.519531 851.960938 769.625 852.324219 764.71875 852.5625 C 759.816406 852.804688 754.910156 852.925781 750 852.925781 C 745.089844 852.925781 740.183594 852.804688 735.28125 852.5625 C 730.375 852.324219 725.480469 851.960938 720.59375 851.480469 C 715.707031 851 710.835938 850.398438 705.980469 849.679688 C 701.125 848.957031 696.289062 848.117188 691.472656 847.160156 C 686.65625 846.203125 681.867188 845.128906 677.105469 843.933594 C 672.34375 842.742188 667.613281 841.433594 662.914062 840.007812 C 658.214844 838.582031 653.554688 837.042969 648.933594 835.386719 C 644.308594 833.734375 639.730469 831.96875 635.195312 830.089844 C 630.660156 828.210938 626.171875 826.222656 621.734375 824.121094 C 617.296875 822.023438 612.910156 819.816406 608.582031 817.5 C 604.25 815.1875 599.980469 812.769531 595.769531 810.242188 C 591.558594 807.71875 587.410156 805.09375 583.328125 802.367188 C 579.246094 799.636719 575.234375 796.8125 571.289062 793.886719 C 567.347656 790.960938 563.476562 787.941406 559.683594 784.828125 C 555.886719 781.714844 552.171875 778.507812 548.53125 775.210938 C 544.894531 771.914062 541.339844 768.527344 537.867188 765.058594 C 534.394531 761.585938 531.011719 758.03125 527.714844 754.394531 C 524.417969 750.753906 521.210938 747.039062 518.097656 743.242188 C 514.980469 739.449219 511.960938 735.578125 509.039062 731.632812 C 506.113281 727.691406 503.285156 723.679688 500.558594 719.597656 C 497.832031 715.515625 495.207031 711.367188 492.679688 707.15625 C 490.15625 702.945312 487.738281 698.675781 485.421875 694.34375 C 483.109375 690.015625 480.902344 685.628906 478.804688 681.191406 C 476.703125 676.753906 474.714844 672.265625 472.835938 667.730469 C 470.957031 663.195312 469.191406 658.613281 467.535156 653.992188 C 465.882812 649.371094 464.34375 644.707031 462.917969 640.011719 C 461.492188 635.3125 460.183594 630.582031 458.992188 625.820312 C 457.796875 621.054688 456.722656 616.265625 455.765625 611.453125 C 454.804688 606.636719 453.96875 601.800781 453.246094 596.945312 C 452.527344 592.085938 451.925781 587.214844 451.445312 582.332031 C 450.964844 577.445312 450.601562 572.550781 450.363281 567.644531 C 450.121094 562.742188 450 557.835938 450 552.925781 C 450 548.015625 450.121094 543.109375 450.363281 538.203125 C 450.601562 533.300781 450.964844 528.40625 451.445312 523.519531 C 451.925781 518.632812 452.527344 513.761719 453.246094 508.90625 C 453.96875 504.050781 454.804688 499.214844 455.765625 494.398438 C 456.722656 489.582031 457.796875 484.792969 458.992188 480.03125 C 460.183594 475.269531 461.492188 470.539062 462.917969 465.839844 C 464.34375 461.140625 465.882812 456.480469 467.535156 451.859375 C 469.191406 447.234375 470.957031 442.65625 472.835938 438.121094 C 474.714844 433.585938 476.703125 429.097656 478.804688 424.660156 C 480.902344 420.21875 483.109375 415.835938 485.421875 411.507812 C 487.738281 407.175781 490.15625 402.90625 492.679688 398.695312 C 495.207031 394.484375 497.832031 390.335938 500.558594 386.253906 C 503.285156 382.171875 506.113281 378.160156 509.039062 374.214844 C 511.960938 370.273438 514.980469 366.402344 518.097656 362.605469 C 521.210938 358.8125 524.417969 355.09375 527.714844 351.457031 C 531.011719 347.820312 534.394531 344.265625 537.867188 340.792969 C 541.339844 337.320312 544.894531 333.9375 548.53125 330.640625 C 552.171875 327.34375 555.886719 324.136719 559.683594 321.023438 C 563.476562 317.90625 567.347656 314.886719 571.289062 311.960938 C 575.234375 309.039062 579.246094 306.210938 583.328125 303.484375 C 587.410156 300.757812 591.558594 298.128906 595.769531 295.605469 C 599.980469 293.082031 604.25 290.664062 608.582031 288.347656 C 612.910156 286.035156 617.296875 283.828125 621.734375 281.726562 C 626.171875 279.628906 630.660156 277.640625 635.195312 275.761719 C 639.730469 273.882812 644.308594 272.117188 648.933594 270.460938 C 653.554688 268.808594 658.214844 267.269531 662.914062 265.84375 C 667.613281 264.417969 672.34375 263.109375 677.105469 261.914062 C 681.867188 260.722656 686.65625 259.648438 691.472656 258.691406 C 696.289062 257.730469 701.125 256.890625 705.980469 256.171875 C 710.835938 255.453125 715.707031 254.851562 720.59375 254.371094 C 725.480469 253.886719 730.375 253.527344 735.28125 253.285156 C 740.183594 253.046875 745.089844 252.925781 750 252.925781 C 754.910156 252.925781 759.816406 253.046875 764.71875 253.285156 C 769.625 253.527344 774.519531 253.886719 779.40625 254.371094 C 784.292969 254.851562 789.164062 255.453125 794.019531 256.171875 C 798.875 256.890625 803.710938 257.730469 808.527344 258.691406 C 813.34375 259.648438 818.132812 260.722656 822.894531 261.914062 C 827.65625 263.109375 832.386719 264.417969 837.085938 265.84375 C 841.785156 267.269531 846.445312 268.808594 851.066406 270.460938 C 855.691406 272.117188 860.269531 273.882812 864.804688 275.761719 C 869.339844 277.640625 873.828125 279.628906 878.265625 281.726562 C 882.703125 283.828125 887.089844 286.035156 891.417969 288.347656 C 895.75 290.664062 900.019531 293.082031 904.230469 295.605469 C 908.441406 298.128906 912.589844 300.757812 916.671875 303.484375 C 920.753906 306.210938 924.765625 309.039062 928.710938 311.960938 C 932.652344 314.886719 936.523438 317.90625 940.316406 321.023438 C 944.113281 324.136719 947.828125 327.34375 951.46875 330.640625 C 955.105469 333.9375 958.660156 337.320312 962.132812 340.792969 C 965.605469 344.265625 968.988281 347.820312 972.285156 351.457031 C 975.582031 355.09375 978.789062 358.8125 981.902344 362.605469 C 985.019531 366.402344 988.039062 370.273438 990.960938 374.214844 C 993.886719 378.160156 996.714844 382.171875 999.441406 386.253906 C 1002.167969 390.335938 1004.792969 394.484375 1007.320312 398.695312 C 1009.84375 402.90625 1012.261719 407.175781 1014.578125 411.507812 C 1016.890625 415.835938 1019.097656 420.21875 1021.195312 424.660156 C 1023.296875 429.097656 1025.285156 433.585938 1027.164062 438.121094 C 1029.042969 442.65625 1030.808594 447.234375 1032.464844 451.859375 C 1034.117188 456.480469 1035.65625 461.140625 1037.082031 465.839844 C 1038.507812 470.539062 1039.816406 475.269531 1041.007812 480.03125 C 1042.203125 484.792969 1043.277344 489.582031 1044.234375 494.398438 C 1045.195312 499.214844 1046.03125 504.050781 1046.753906 508.90625 C 1047.472656 513.761719 1048.074219 518.632812 1048.554688 523.519531 C 1049.035156 528.40625 1049.398438 533.300781 1049.636719 538.203125 C 1049.878906 543.109375 1050 548.015625 1050 552.925781 Z M 1050 552.925781 " fill-opacity="1" fill-rule="nonzero"/></g><path fill="#7679ee" d="M 1030.601562 552.925781 C 1030.601562 557.515625 1030.488281 562.105469 1030.261719 566.695312 C 1030.035156 571.28125 1029.699219 575.859375 1029.25 580.429688 C 1028.796875 585 1028.238281 589.554688 1027.5625 594.097656 C 1026.890625 598.640625 1026.105469 603.164062 1025.207031 607.667969 C 1024.3125 612.171875 1023.304688 616.652344 1022.191406 621.105469 C 1021.074219 625.558594 1019.851562 629.984375 1018.515625 634.378906 C 1017.183594 638.773438 1015.746094 643.132812 1014.195312 647.457031 C 1012.648438 651.78125 1010.996094 656.0625 1009.242188 660.304688 C 1007.484375 664.546875 1005.621094 668.746094 1003.660156 672.898438 C 1001.695312 677.046875 999.632812 681.148438 997.46875 685.199219 C 995.300781 689.25 993.039062 693.242188 990.679688 697.183594 C 988.316406 701.121094 985.863281 705 983.308594 708.816406 C 980.757812 712.636719 978.117188 716.390625 975.378906 720.078125 C 972.644531 723.765625 969.820312 727.386719 966.90625 730.9375 C 963.992188 734.484375 960.996094 737.960938 957.910156 741.363281 C 954.828125 744.765625 951.660156 748.09375 948.414062 751.339844 C 945.167969 754.585938 941.84375 757.75 938.4375 760.835938 C 935.035156 763.917969 931.5625 766.917969 928.011719 769.832031 C 924.460938 772.746094 920.839844 775.570312 917.152344 778.304688 C 913.464844 781.039062 909.710938 783.683594 905.894531 786.234375 C 902.074219 788.785156 898.195312 791.242188 894.257812 793.605469 C 890.316406 795.964844 886.324219 798.226562 882.273438 800.390625 C 878.222656 802.558594 874.125 804.621094 869.972656 806.585938 C 865.820312 808.546875 861.625 810.40625 857.382812 812.164062 C 853.136719 813.921875 848.855469 815.574219 844.53125 817.121094 C 840.207031 818.667969 835.847656 820.109375 831.453125 821.441406 C 827.058594 822.777344 822.636719 824 818.179688 825.117188 C 813.726562 826.230469 809.246094 827.238281 804.742188 828.132812 C 800.238281 829.027344 795.714844 829.8125 791.171875 830.488281 C 786.628906 831.160156 782.074219 831.722656 777.503906 832.175781 C 772.933594 832.625 768.355469 832.960938 763.769531 833.1875 C 759.183594 833.414062 754.59375 833.523438 750 833.523438 C 745.40625 833.523438 740.816406 833.414062 736.230469 833.1875 C 731.644531 832.960938 727.066406 832.625 722.496094 832.175781 C 717.925781 831.722656 713.371094 831.160156 708.828125 830.488281 C 704.285156 829.8125 699.761719 829.027344 695.257812 828.132812 C 690.753906 827.238281 686.273438 826.230469 681.820312 825.117188 C 677.363281 824 672.941406 822.777344 668.546875 821.441406 C 664.152344 820.109375 659.792969 818.667969 655.46875 817.121094 C 651.144531 815.574219 646.863281 813.921875 642.617188 812.164062 C 638.375 810.40625 634.179688 808.546875 630.027344 806.585938 C 625.875 804.621094 621.777344 802.558594 617.726562 800.390625 C 613.675781 798.226562 609.679688 795.964844 605.742188 793.605469 C 601.804688 791.242188 597.925781 788.785156 594.105469 786.234375 C 590.289062 783.683594 586.535156 781.039062 582.847656 778.304688 C 579.160156 775.570312 575.539062 772.746094 571.988281 769.832031 C 568.4375 766.917969 564.964844 763.917969 561.5625 760.835938 C 558.15625 757.75 554.832031 754.585938 551.585938 751.339844 C 548.339844 748.09375 545.171875 744.765625 542.089844 741.363281 C 539.003906 737.960938 536.007812 734.484375 533.09375 730.9375 C 530.179688 727.386719 527.355469 723.765625 524.621094 720.078125 C 521.882812 716.390625 519.242188 712.636719 516.691406 708.816406 C 514.136719 705 511.683594 701.121094 509.320312 697.183594 C 506.960938 693.242188 504.699219 689.25 502.53125 685.199219 C 500.367188 681.148438 498.304688 677.046875 496.339844 672.898438 C 494.378906 668.746094 492.515625 664.546875 490.757812 660.304688 C 489.003906 656.0625 487.351562 651.78125 485.800781 647.457031 C 484.253906 643.132812 482.816406 638.773438 481.484375 634.378906 C 480.148438 629.984375 478.925781 625.558594 477.808594 621.105469 C 476.695312 616.652344 475.6875 612.171875 474.792969 607.667969 C 473.894531 603.164062 473.109375 598.640625 472.4375 594.097656 C 471.761719 589.554688 471.203125 585 470.75 580.429688 C 470.300781 575.859375 469.964844 571.28125 469.738281 566.695312 C 469.511719 562.105469 469.398438 557.515625 469.398438 552.925781 C 469.398438 548.332031 469.511719 543.742188 469.738281 539.15625 C 469.964844 534.570312 470.300781 529.992188 470.75 525.421875 C 471.203125 520.851562 471.761719 516.296875 472.4375 511.753906 C 473.109375 507.210938 473.894531 502.6875 474.792969 498.183594 C 475.6875 493.679688 476.695312 489.199219 477.808594 484.746094 C 478.925781 480.289062 480.148438 475.867188 481.484375 471.472656 C 482.816406 467.078125 484.253906 462.71875 485.800781 458.394531 C 487.351562 454.070312 489.003906 449.785156 490.757812 445.542969 C 492.515625 441.300781 494.378906 437.105469 496.339844 432.953125 C 498.304688 428.800781 500.367188 424.699219 502.53125 420.652344 C 504.699219 416.601562 506.960938 412.605469 509.320312 408.667969 C 511.683594 404.730469 514.136719 400.851562 516.691406 397.03125 C 519.242188 393.214844 521.882812 389.460938 524.621094 385.773438 C 527.355469 382.082031 530.179688 378.464844 533.09375 374.914062 C 536.007812 371.363281 539.003906 367.886719 542.089844 364.484375 C 545.171875 361.082031 548.339844 357.757812 551.585938 354.511719 C 554.832031 351.265625 558.15625 348.097656 561.5625 345.015625 C 564.964844 341.929688 568.4375 338.929688 571.988281 336.019531 C 575.539062 333.105469 579.160156 330.28125 582.847656 327.546875 C 586.535156 324.808594 590.289062 322.164062 594.105469 319.613281 C 597.925781 317.0625 601.804688 314.605469 605.742188 312.246094 C 609.679688 309.886719 613.675781 307.621094 617.726562 305.457031 C 621.777344 303.292969 625.875 301.230469 630.027344 299.265625 C 634.179688 297.300781 638.375 295.441406 642.617188 293.683594 C 646.863281 291.925781 651.144531 290.273438 655.46875 288.726562 C 659.792969 287.179688 664.152344 285.742188 668.546875 284.40625 C 672.941406 283.074219 677.363281 281.851562 681.820312 280.734375 C 686.273438 279.617188 690.753906 278.613281 695.257812 277.714844 C 699.761719 276.820312 704.285156 276.035156 708.828125 275.363281 C 713.371094 274.6875 717.925781 274.125 722.496094 273.675781 C 727.066406 273.226562 731.644531 272.886719 736.230469 272.664062 C 740.816406 272.4375 745.40625 272.324219 750 272.324219 C 754.59375 272.324219 759.183594 272.4375 763.769531 272.664062 C 768.355469 272.886719 772.933594 273.226562 777.503906 273.675781 C 782.074219 274.125 786.628906 274.6875 791.171875 275.363281 C 795.714844 276.035156 800.238281 276.820312 804.742188 277.714844 C 809.246094 278.613281 813.726562 279.617188 818.179688 280.734375 C 822.636719 281.851562 827.058594 283.074219 831.453125 284.40625 C 835.847656 285.742188 840.207031 287.179688 844.53125 288.726562 C 848.855469 290.273438 853.136719 291.925781 857.382812 293.683594 C 861.625 295.441406 865.820312 297.300781 869.972656 299.265625 C 874.125 301.230469 878.222656 303.292969 882.273438 305.457031 C 886.324219 307.621094 890.316406 309.886719 894.257812 312.246094 C 898.195312 314.605469 902.074219 317.0625 905.894531 319.613281 C 909.710938 322.164062 913.464844 324.808594 917.152344 327.546875 C 920.839844 330.28125 924.460938 333.105469 928.011719 336.019531 C 931.5625 338.929688 935.035156 341.929688 938.4375 345.015625 C 941.84375 348.097656 945.167969 351.265625 948.414062 354.511719 C 951.660156 357.757812 954.828125 361.082031 957.910156 364.484375 C 960.996094 367.886719 963.992188 371.363281 966.90625 374.914062 C 969.820312 378.464844 972.644531 382.082031 975.378906 385.773438 C 978.117188 389.460938 980.757812 393.214844 983.308594 397.03125 C 985.863281 400.851562 988.316406 404.730469 990.679688 408.667969 C 993.039062 412.605469 995.300781 416.601562 997.46875 420.652344 C 999.632812 424.699219 1001.695312 428.800781 1003.660156 432.953125 C 1005.621094 437.105469 1007.484375 441.300781 1009.242188 445.542969 C 1010.996094 449.785156 1012.648438 454.070312 1014.195312 458.394531 C 1015.746094 462.71875 1017.183594 467.078125 1018.515625 471.472656 C 1019.851562 475.867188 1021.074219 480.289062 1022.191406 484.746094 C 1023.304688 489.199219 1024.3125 493.679688 1025.207031 498.183594 C 1026.105469 502.6875 1026.890625 507.210938 1027.5625 511.753906 C 1028.238281 516.296875 1028.796875 520.851562 1029.25 525.421875 C 1029.699219 529.992188 1030.035156 534.570312 1030.261719 539.15625 C 1030.488281 543.742188 1030.601562 548.332031 1030.601562 552.925781 Z M 1030.601562 552.925781 " fill-opacity="1" fill-rule="nonzero"/><path fill="#ffffff" d="M 1013.398438 552.925781 C 1013.398438 407.523438 895.398438 289.523438 750 289.523438 C 604.601562 289.523438 486.601562 407.523438 486.601562 552.925781 C 486.601562 554.324219 486.601562 555.925781 486.800781 557.324219 C 489 418.726562 602 307.125 741.199219 307.125 C 881.800781 307.125 995.800781 421.125 995.800781 561.726562 C 995.800781 700.925781 884.199219 813.925781 745.601562 816.125 C 747 816.324219 748.601562 816.324219 750 816.324219 C 895.398438 816.324219 1013.398438 698.324219 1013.398438 552.925781 Z M 1013.398438 552.925781 " fill-opacity="1" fill-rule="evenodd"/><path fill="#d9d9d9" d="M 733 614.925781 L 723 614.925781 L 723 647.925781 C 723 665.125 749 665.125 749 647.925781 C 749 643.523438 755.800781 643.523438 755.800781 647.925781 C 755.800781 658.726562 747 667.726562 736 667.726562 C 725.199219 667.726562 716.398438 658.726562 716.398438 647.925781 L 716.398438 614.925781 C 709.800781 614.925781 703 616.324219 703 611.523438 C 703 606.925781 709.800781 608.324219 716.398438 608.324219 L 716.398438 573.324219 C 716.398438 561.324219 698 561.324219 698 573.324219 C 698 577.726562 691.199219 577.726562 691.199219 573.324219 C 691.199219 552.523438 723 552.523438 723 573.324219 L 723 608.324219 C 729.398438 608.324219 736.398438 606.925781 736.398438 611.523438 C 736.398438 613.523438 735 614.925781 733 614.925781 Z M 723.601562 693.125 C 679.199219 693.125 643 656.925781 643 612.726562 C 643 568.324219 679.199219 532.125 723.601562 532.125 C 767.800781 532.125 804 568.324219 804 612.726562 C 804 656.925781 767.800781 693.125 723.601562 693.125 Z M 723.601562 538.726562 C 682.800781 538.726562 649.601562 571.925781 649.601562 612.726562 C 649.601562 653.324219 682.800781 686.523438 723.601562 686.523438 C 764.199219 686.523438 797.398438 653.324219 797.398438 612.726562 C 797.398438 571.925781 764.199219 538.726562 723.601562 538.726562 Z M 807.601562 723.523438 L 639.398438 723.523438 C 638.800781 723.523438 638 723.324219 637.398438 722.925781 C 610.199219 701.925781 594.800781 676.324219 591.800781 646.726562 C 586.398438 590.925781 626.199219 534.726562 648.199219 508.324219 C 635.199219 507.726562 629.601562 491.324219 639.601562 483.125 C 629.398438 474.523438 635.601562 457.726562 648.800781 457.726562 L 674.601562 457.726562 C 670.601562 415.726562 645.800781 399.125 645.601562 398.925781 C 641.601562 396.523438 646.199219 388.125 650.800781 385.125 C 665.199219 376.324219 696.199219 389.523438 715.199219 394.324219 C 726.398438 397.125 734 393.726562 745 390.523438 C 764 384.726562 799 373.125 803 395.726562 C 803.199219 396.925781 802.601562 398.324219 801.398438 398.925781 C 801.199219 399.125 776.398438 415.726562 772.398438 457.726562 L 798.199219 457.726562 C 806.398438 457.726562 812.800781 464.523438 812.398438 472.726562 C 836.800781 467.324219 877 463.324219 907.199219 484.726562 C 910.800781 487.324219 907 492.726562 903.398438 490.125 C 873.601562 469.125 832.601562 474.726562 810 480.125 C 809.199219 481.125 808.398438 482.125 807.398438 483.125 C 811 486.125 813 490.925781 812.398438 495.925781 C 832.398438 509.125 861.199219 524.523438 887.601562 525.925781 C 891.800781 526.125 891.601562 532.726562 887.199219 532.523438 C 860 531.125 830.601562 515.726562 809.800781 502.324219 C 807.398438 505.726562 803.398438 508.125 798.800781 508.324219 C 820.800781 534.726562 860.601562 590.925781 855.199219 646.726562 C 852.199219 676.324219 836.800781 701.925781 809.601562 722.925781 C 809 723.324219 808.199219 723.523438 807.601562 723.523438 Z M 656.800781 508.324219 C 636.601562 531.726562 592.800781 589.523438 598.601562 646.125 C 601.199219 673.523438 615.398438 697.324219 640.601562 716.925781 L 806.398438 716.925781 C 831.601562 697.324219 845.800781 673.523438 848.601562 646.125 C 854.199219 589.523438 810.398438 531.726562 790.199219 508.324219 Z M 791.601562 501.726562 C 797.601562 501.523438 802.800781 503.125 805.398438 496.324219 C 807 492.726562 804.199219 486.324219 798.199219 486.324219 L 648.800781 486.324219 C 638.800781 486.324219 638.800781 501.726562 648.800781 501.726562 Z M 765.800781 457.726562 C 769.398438 418.523438 789.398438 399.925781 795.800781 394.925781 C 791.398438 382.523438 761.800781 392.324219 746.800781 396.925781 L 733.199219 400.726562 C 703.199219 426.125 719.398438 435.125 711.398438 436.726562 C 709.601562 437.125 707.800781 435.925781 707.601562 434.125 C 705.398438 424.523438 710.398438 413.726562 722 401.925781 C 705.199219 401.125 657.199219 378.125 651.199219 394.925781 C 657.601562 399.925781 677.800781 418.523438 681.199219 457.726562 Z M 804.800781 475.726562 C 807.800781 469.726562 803.199219 464.523438 798.199219 464.523438 C 748.398438 464.523438 698.601562 464.523438 648.800781 464.523438 C 638.800781 464.523438 638.800781 479.726562 648.800781 479.726562 L 798.199219 479.726562 C 801 479.726562 803.601562 478.125 804.800781 475.726562 Z M 723.601562 708.925781 C 670.398438 708.925781 627.199219 665.726562 627.199219 612.726562 C 627.199219 559.523438 670.398438 516.324219 723.601562 516.324219 C 776.601562 516.324219 819.800781 559.523438 819.800781 612.726562 C 819.800781 665.726562 776.601562 708.925781 723.601562 708.925781 Z M 723.601562 523.125 C 674.199219 523.125 634 563.324219 634 612.726562 C 634 661.925781 674.199219 702.125 723.601562 702.125 C 773 702.125 813 661.925781 813 612.726562 C 813 563.324219 773 523.125 723.601562 523.125 Z M 723.601562 523.125 " fill-opacity="1" fill-rule="evenodd"/><g fill="#3d358b" fill-opacity="1"><g transform="translate(361.080018, 973.625224)"><g><path d="M 10.75 0 L 10.75 -89.59375 L 69.625 -89.59375 L 69.625 -72.453125 L 30.96875 -72.453125 L 30.96875 -53.890625 L 66.171875 -53.890625 L 66.171875 -36.859375 L 30.96875 -36.859375 L 30.96875 -17.28125 L 71.046875 -17.28125 L 71.046875 0 Z M 10.75 0 "/></g></g></g><g fill="#3d358b" fill-opacity="1"><g transform="translate(469.490772, 973.625224)"><g><path d="M 3.453125 0 L 33.921875 -45.828125 L 4.859375 -89.59375 L 28.15625 -89.59375 L 38.90625 -72.953125 L 47.109375 -60.546875 L 66.171875 -89.59375 L 89.34375 -89.59375 L 60.421875 -45.953125 L 90.875 0 L 66.9375 0 L 54.65625 -18.9375 L 47.234375 -30.34375 L 39.6875 -18.9375 L 27.390625 0 Z M 3.453125 0 "/></g></g></g><g fill="#3d358b" fill-opacity="1"><g transform="translate(594.668491, 973.625224)"><g><path d="M 10.75 0 L 10.75 -89.59375 L 45.828125 -89.59375 C 53.078125 -89.59375 59.347656 -88.269531 64.640625 -85.625 C 69.929688 -82.976562 74.046875 -79.222656 76.984375 -74.359375 C 79.929688 -69.503906 81.40625 -63.789062 81.40625 -57.21875 C 81.40625 -50.726562 79.929688 -45.050781 76.984375 -40.1875 C 74.046875 -35.320312 69.929688 -31.566406 64.640625 -28.921875 C 59.347656 -26.273438 53.078125 -24.953125 45.828125 -24.953125 L 31.109375 -24.953125 L 31.109375 0 Z M 30.96875 -42.5 L 44.15625 -42.5 C 49.445312 -42.5 53.519531 -43.753906 56.375 -46.265625 C 59.238281 -48.785156 60.671875 -52.394531 60.671875 -57.09375 C 60.671875 -61.78125 59.238281 -65.40625 56.375 -67.96875 C 53.519531 -70.53125 49.445312 -71.8125 44.15625 -71.8125 L 30.96875 -71.8125 Z M 30.96875 -42.5 "/></g></g></g><g fill="#3d358b" fill-opacity="1"><g transform="translate(710.630777, 973.625224)"><g><path d="M 10.75 0 L 10.75 -89.59375 L 69.625 -89.59375 L 69.625 -72.453125 L 30.96875 -72.453125 L 30.96875 -53.890625 L 66.171875 -53.890625 L 66.171875 -36.859375 L 30.96875 -36.859375 L 30.96875 -17.28125 L 71.046875 -17.28125 L 71.046875 0 Z M 10.75 0 "/></g></g></g><g fill="#3d358b" fill-opacity="1"><g transform="translate(819.041542, 973.625224)"><g><path d="M 10.75 0 L 10.75 -89.59375 L 28.03125 -89.59375 L 67.578125 -35.078125 L 67.578125 -89.59375 L 87.8125 -89.59375 L 87.8125 0 L 70.53125 0 L 30.96875 -54.90625 L 30.96875 0 Z M 10.75 0 "/></g></g></g><g fill="#3d358b" fill-opacity="1"><g transform="translate(948.442991, 973.625224)"><g><path d="M 41.984375 1.796875 C 34.472656 1.796875 28.007812 0.5625 22.59375 -1.90625 C 17.175781 -4.382812 12.992188 -7.90625 10.046875 -12.46875 C 7.097656 -17.039062 5.625 -22.398438 5.625 -28.546875 L 25.59375 -28.546875 C 25.59375 -24.273438 27.066406 -20.941406 30.015625 -18.546875 C 32.960938 -16.160156 36.910156 -14.96875 41.859375 -14.96875 C 46.117188 -14.96875 49.488281 -15.800781 51.96875 -17.46875 C 54.445312 -19.132812 55.6875 -21.460938 55.6875 -24.453125 C 55.6875 -27.609375 54.191406 -30.164062 51.203125 -32.125 C 48.210938 -34.09375 43.5625 -35.757812 37.25 -37.125 C 26.75 -39.34375 18.984375 -42.710938 13.953125 -47.234375 C 8.921875 -51.753906 6.40625 -57.640625 6.40625 -64.890625 C 6.40625 -73.085938 9.390625 -79.550781 15.359375 -84.28125 C 21.328125 -89.019531 29.476562 -91.390625 39.8125 -91.390625 C 46.894531 -91.390625 53.035156 -90.171875 58.234375 -87.734375 C 63.441406 -85.304688 67.472656 -81.894531 70.328125 -77.5 C 73.191406 -73.101562 74.625 -67.878906 74.625 -61.828125 L 55.046875 -61.828125 C 55.046875 -65.835938 53.722656 -68.992188 51.078125 -71.296875 C 48.429688 -73.597656 44.757812 -74.75 40.0625 -74.75 C 35.789062 -74.75 32.414062 -73.914062 29.9375 -72.25 C 27.46875 -70.59375 26.234375 -68.269531 26.234375 -65.28125 C 26.234375 -62.550781 27.597656 -60.242188 30.328125 -58.359375 C 33.066406 -56.484375 37.847656 -54.738281 44.671875 -53.125 C 55.847656 -50.476562 63.910156 -46.9375 68.859375 -42.5 C 73.804688 -38.0625 76.28125 -32.300781 76.28125 -25.21875 C 76.28125 -16.769531 73.226562 -10.15625 67.125 -5.375 C 61.03125 -0.59375 52.648438 1.796875 41.984375 1.796875 Z M 41.984375 1.796875 "/></g></g></g><g fill="#3d358b" fill-opacity="1"><g transform="translate(1061.333454, 973.625224)"><g><path d="M 10.75 0 L 10.75 -89.59375 L 69.625 -89.59375 L 69.625 -72.453125 L 30.96875 -72.453125 L 30.96875 -53.890625 L 66.171875 -53.890625 L 66.171875 -36.859375 L 30.96875 -36.859375 L 30.96875 -17.28125 L 71.046875 -17.28125 L 71.046875 0 Z M 10.75 0 "/></g></g></g><g fill="#3d358b" fill-opacity="1"><g transform="translate(579.616732, 1056.475329)"><g><path d="M 15.671875 -3.421875 L 26.875 -3.421875 C 27.445312 -3.421875 27.929688 -3.523438 28.328125 -3.734375 C 28.734375 -3.941406 29.082031 -4.238281 29.375 -4.625 C 29.664062 -5.007812 29.894531 -5.457031 30.0625 -5.96875 C 30.238281 -6.488281 30.375 -7.0625 30.46875 -7.6875 L 30.90625 -10.3125 L 34.78125 -10.3125 L 34.375 0 L 1.5625 0 L 1.5625 -2.984375 L 3.90625 -2.984375 C 4.3125 -2.984375 4.6875 -3.019531 5.03125 -3.09375 C 5.375 -3.164062 5.675781 -3.316406 5.9375 -3.546875 C 6.207031 -3.773438 6.414062 -4.109375 6.5625 -4.546875 C 6.707031 -4.992188 6.78125 -5.582031 6.78125 -6.3125 L 6.78125 -33.390625 C 6.78125 -34.191406 6.707031 -34.828125 6.5625 -35.296875 C 6.414062 -35.773438 6.210938 -36.140625 5.953125 -36.390625 C 5.703125 -36.648438 5.40625 -36.820312 5.0625 -36.90625 C 4.71875 -36.988281 4.332031 -37.03125 3.90625 -37.03125 L 1.5625 -37.03125 L 1.5625 -39.984375 L 32.65625 -39.984375 L 32.875 -29.671875 L 28.953125 -29.671875 L 28.6875 -32.328125 C 28.539062 -33.691406 28.191406 -34.738281 27.640625 -35.46875 C 27.097656 -36.195312 26.253906 -36.5625 25.109375 -36.5625 L 15.671875 -36.5625 L 15.671875 -22.5625 L 28.953125 -22.5625 L 28.953125 -19.203125 L 15.671875 -19.203125 Z M 15.671875 -3.421875 "/></g></g></g><g fill="#3d358b" fill-opacity="1"><g transform="translate(639.130261, 1056.475329)"><g><path d="M 29.28125 -35.390625 C 29.28125 -35.710938 29.195312 -35.984375 29.03125 -36.203125 C 28.875 -36.421875 28.65625 -36.585938 28.375 -36.703125 C 28.09375 -36.828125 27.757812 -36.910156 27.375 -36.953125 C 26.988281 -37.003906 26.578125 -37.03125 26.140625 -37.03125 L 25.984375 -37.03125 L 25.984375 -39.984375 L 39.109375 -39.984375 L 39.109375 -37.03125 L 38.578125 -37.03125 C 38.035156 -37.03125 37.546875 -36.957031 37.109375 -36.8125 C 36.671875 -36.675781 36.238281 -36.445312 35.8125 -36.125 C 35.382812 -35.8125 34.953125 -35.398438 34.515625 -34.890625 C 34.078125 -34.378906 33.582031 -33.742188 33.03125 -32.984375 L 24.90625 -21.90625 L 35.21875 -5.9375 C 35.945312 -4.789062 36.703125 -4.007812 37.484375 -3.59375 C 38.273438 -3.1875 39.015625 -2.984375 39.703125 -2.984375 L 40.4375 -2.984375 L 40.4375 0 L 21.953125 0 L 21.953125 -2.984375 L 22.234375 -2.984375 C 24.472656 -2.984375 25.59375 -3.59375 25.59375 -4.8125 C 25.59375 -5.03125 25.570312 -5.238281 25.53125 -5.4375 C 25.5 -5.644531 25.414062 -5.882812 25.28125 -6.15625 C 25.144531 -6.425781 24.957031 -6.757812 24.71875 -7.15625 C 24.476562 -7.5625 24.148438 -8.066406 23.734375 -8.671875 L 18.59375 -16.46875 L 12.546875 -8.28125 C 12.203125 -7.8125 11.875 -7.269531 11.5625 -6.65625 C 11.257812 -6.050781 11.109375 -5.457031 11.109375 -4.875 C 11.109375 -4.25 11.363281 -3.773438 11.875 -3.453125 C 12.382812 -3.140625 13.257812 -2.984375 14.5 -2.984375 L 14.6875 -2.984375 L 14.6875 0 L 0.546875 0 L 0.546875 -2.984375 L 0.90625 -2.984375 C 1.582031 -2.984375 2.175781 -3.070312 2.6875 -3.25 C 3.195312 -3.4375 3.671875 -3.695312 4.109375 -4.03125 C 4.554688 -4.375 4.988281 -4.785156 5.40625 -5.265625 C 5.832031 -5.742188 6.273438 -6.285156 6.734375 -6.890625 L 16.515625 -19.65625 L 7.28125 -34.046875 C 6.96875 -34.535156 6.660156 -34.96875 6.359375 -35.34375 C 6.054688 -35.71875 5.71875 -36.023438 5.34375 -36.265625 C 4.96875 -36.515625 4.550781 -36.703125 4.09375 -36.828125 C 3.644531 -36.960938 3.101562 -37.03125 2.46875 -37.03125 L 1.71875 -37.03125 L 1.71875 -39.984375 L 20.265625 -39.984375 L 20.265625 -37.03125 L 20.09375 -37.03125 C 19.457031 -37.03125 18.925781 -36.988281 18.5 -36.90625 C 18.070312 -36.820312 17.726562 -36.703125 17.46875 -36.546875 C 17.21875 -36.390625 17.039062 -36.210938 16.9375 -36.015625 C 16.84375 -35.816406 16.796875 -35.609375 16.796875 -35.390625 C 16.796875 -35.003906 16.9375 -34.519531 17.21875 -33.9375 C 17.5 -33.351562 17.847656 -32.742188 18.265625 -32.109375 L 22.921875 -25.15625 L 27.78125 -31.96875 C 28.113281 -32.476562 28.445312 -33.046875 28.78125 -33.671875 C 29.113281 -34.304688 29.28125 -34.878906 29.28125 -35.390625 Z M 29.28125 -35.390625 "/></g></g></g><g fill="#3d358b" fill-opacity="1"><g transform="translate(703.072859, 1056.475329)"><g><path d="M 34.046875 -28.109375 C 34.046875 -26.429688 33.753906 -24.816406 33.171875 -23.265625 C 32.585938 -21.722656 31.640625 -20.359375 30.328125 -19.171875 C 29.015625 -17.984375 27.304688 -17.035156 25.203125 -16.328125 C 23.109375 -15.628906 20.550781 -15.28125 17.53125 -15.28125 L 15.609375 -15.28125 L 15.609375 -6.3125 C 15.609375 -5.582031 15.691406 -4.992188 15.859375 -4.546875 C 16.023438 -4.109375 16.242188 -3.773438 16.515625 -3.546875 C 16.785156 -3.316406 17.101562 -3.164062 17.46875 -3.09375 C 17.832031 -3.019531 18.207031 -2.984375 18.59375 -2.984375 L 22.015625 -2.984375 L 22.015625 0 L 1.5625 0 L 1.5625 -2.984375 L 3.90625 -2.984375 C 4.332031 -2.984375 4.71875 -3.023438 5.0625 -3.109375 C 5.40625 -3.191406 5.703125 -3.359375 5.953125 -3.609375 C 6.210938 -3.867188 6.414062 -4.234375 6.5625 -4.703125 C 6.707031 -5.179688 6.78125 -5.820312 6.78125 -6.625 L 6.78125 -33.609375 C 6.78125 -34.359375 6.707031 -34.953125 6.5625 -35.390625 C 6.414062 -35.835938 6.207031 -36.179688 5.9375 -36.421875 C 5.675781 -36.660156 5.375 -36.820312 5.03125 -36.90625 C 4.6875 -36.988281 4.3125 -37.03125 3.90625 -37.03125 L 1.5625 -37.03125 L 1.5625 -39.984375 L 18.765625 -39.984375 C 21.347656 -39.984375 23.597656 -39.707031 25.515625 -39.15625 C 27.429688 -38.613281 29.019531 -37.828125 30.28125 -36.796875 C 31.550781 -35.765625 32.492188 -34.519531 33.109375 -33.0625 C 33.734375 -31.601562 34.046875 -29.953125 34.046875 -28.109375 Z M 15.609375 -18.546875 L 16.984375 -18.546875 C 18.367188 -18.546875 19.539062 -18.71875 20.5 -19.0625 C 21.46875 -19.40625 22.257812 -19.953125 22.875 -20.703125 C 23.488281 -21.453125 23.9375 -22.414062 24.21875 -23.59375 C 24.5 -24.78125 24.640625 -26.210938 24.640625 -27.890625 C 24.640625 -29.390625 24.515625 -30.6875 24.265625 -31.78125 C 24.023438 -32.882812 23.632812 -33.796875 23.09375 -34.515625 C 22.550781 -35.242188 21.847656 -35.785156 20.984375 -36.140625 C 20.117188 -36.492188 19.054688 -36.671875 17.796875 -36.671875 L 15.609375 -36.671875 Z M 15.609375 -18.546875 "/></g></g></g><g fill="#3d358b" fill-opacity="1"><g transform="translate(761.76619, 1056.475329)"><g><path d="M 15.671875 -3.421875 L 26.875 -3.421875 C 27.445312 -3.421875 27.929688 -3.523438 28.328125 -3.734375 C 28.734375 -3.941406 29.082031 -4.238281 29.375 -4.625 C 29.664062 -5.007812 29.894531 -5.457031 30.0625 -5.96875 C 30.238281 -6.488281 30.375 -7.0625 30.46875 -7.6875 L 30.90625 -10.3125 L 34.78125 -10.3125 L 34.375 0 L 1.5625 0 L 1.5625 -2.984375 L 3.90625 -2.984375 C 4.3125 -2.984375 4.6875 -3.019531 5.03125 -3.09375 C 5.375 -3.164062 5.675781 -3.316406 5.9375 -3.546875 C 6.207031 -3.773438 6.414062 -4.109375 6.5625 -4.546875 C 6.707031 -4.992188 6.78125 -5.582031 6.78125 -6.3125 L 6.78125 -33.390625 C 6.78125 -34.191406 6.707031 -34.828125 6.5625 -35.296875 C 6.414062 -35.773438 6.210938 -36.140625 5.953125 -36.390625 C 5.703125 -36.648438 5.40625 -36.820312 5.0625 -36.90625 C 4.71875 -36.988281 4.332031 -37.03125 3.90625 -37.03125 L 1.5625 -37.03125 L 1.5625 -39.984375 L 32.65625 -39.984375 L 32.875 -29.671875 L 28.953125 -29.671875 L 28.6875 -32.328125 C 28.539062 -33.691406 28.191406 -34.738281 27.640625 -35.46875 C 27.097656 -36.195312 26.253906 -36.5625 25.109375 -36.5625 L 15.671875 -36.5625 L 15.671875 -22.5625 L 28.953125 -22.5625 L 28.953125 -19.203125 L 15.671875 -19.203125 Z M 15.671875 -3.421875 "/></g></g></g><g fill="#3d358b" fill-opacity="1"><g transform="translate(821.279719, 1056.475329)"><g><path d="M 1.5625 -2.984375 L 3.90625 -2.984375 C 4.289062 -2.984375 4.65625 -3.019531 5 -3.09375 C 5.351562 -3.164062 5.660156 -3.316406 5.921875 -3.546875 C 6.179688 -3.773438 6.390625 -4.109375 6.546875 -4.546875 C 6.703125 -4.992188 6.78125 -5.582031 6.78125 -6.3125 L 6.78125 -33.609375 C 6.78125 -34.359375 6.703125 -34.953125 6.546875 -35.390625 C 6.390625 -35.835938 6.179688 -36.179688 5.921875 -36.421875 C 5.660156 -36.660156 5.351562 -36.820312 5 -36.90625 C 4.65625 -36.988281 4.289062 -37.03125 3.90625 -37.03125 L 1.5625 -37.03125 L 1.5625 -39.984375 L 19.609375 -39.984375 C 24.890625 -39.984375 28.765625 -39.097656 31.234375 -37.328125 C 33.710938 -35.554688 34.953125 -32.984375 34.953125 -29.609375 C 34.953125 -28.140625 34.734375 -26.828125 34.296875 -25.671875 C 33.859375 -24.523438 33.273438 -23.523438 32.546875 -22.671875 C 31.828125 -21.816406 31.007812 -21.09375 30.09375 -20.5 C 29.1875 -19.90625 28.257812 -19.414062 27.3125 -19.03125 L 33.984375 -7.546875 C 34.460938 -6.742188 34.925781 -6.054688 35.375 -5.484375 C 35.820312 -4.910156 36.265625 -4.4375 36.703125 -4.0625 C 37.148438 -3.6875 37.609375 -3.410156 38.078125 -3.234375 C 38.554688 -3.066406 39.0625 -2.984375 39.59375 -2.984375 L 39.8125 -2.984375 L 39.8125 0 L 37.984375 0 C 36.304688 0 34.84375 -0.0625 33.59375 -0.1875 C 32.34375 -0.320312 31.25 -0.570312 30.3125 -0.9375 C 29.375 -1.3125 28.5625 -1.828125 27.875 -2.484375 C 27.195312 -3.140625 26.566406 -3.988281 25.984375 -5.03125 L 19.328125 -17.359375 L 15.609375 -17.359375 L 15.609375 -6.3125 C 15.609375 -5.582031 15.6875 -4.992188 15.84375 -4.546875 C 16 -4.109375 16.207031 -3.773438 16.46875 -3.546875 C 16.738281 -3.316406 17.046875 -3.164062 17.390625 -3.09375 C 17.734375 -3.019531 18.097656 -2.984375 18.484375 -2.984375 L 20.890625 -2.984375 L 20.890625 0 L 1.5625 0 Z M 15.609375 -20.625 L 18.765625 -20.625 C 20.054688 -20.625 21.132812 -20.796875 22 -21.140625 C 22.863281 -21.484375 23.554688 -21.992188 24.078125 -22.671875 C 24.597656 -23.359375 24.972656 -24.21875 25.203125 -25.25 C 25.429688 -26.28125 25.546875 -27.476562 25.546875 -28.84375 C 25.546875 -30.269531 25.414062 -31.472656 25.15625 -32.453125 C 24.90625 -33.441406 24.503906 -34.25 23.953125 -34.875 C 23.410156 -35.507812 22.703125 -35.96875 21.828125 -36.25 C 20.953125 -36.53125 19.894531 -36.671875 18.65625 -36.671875 L 15.609375 -36.671875 Z M 15.609375 -20.625 "/></g></g></g><g fill="#3d358b" fill-opacity="1"><g transform="translate(883.827993, 1056.475329)"><g><path d="M 22.71875 -6.625 C 22.71875 -5.820312 22.789062 -5.179688 22.9375 -4.703125 C 23.082031 -4.234375 23.285156 -3.867188 23.546875 -3.609375 C 23.816406 -3.359375 24.125 -3.191406 24.46875 -3.109375 C 24.820312 -3.023438 25.195312 -2.984375 25.59375 -2.984375 L 27.953125 -2.984375 L 27.953125 0 L 8.609375 0 L 8.609375 -2.984375 L 10.96875 -2.984375 C 11.382812 -2.984375 11.765625 -3.023438 12.109375 -3.109375 C 12.460938 -3.191406 12.765625 -3.359375 13.015625 -3.609375 C 13.273438 -3.867188 13.476562 -4.234375 13.625 -4.703125 C 13.769531 -5.179688 13.84375 -5.820312 13.84375 -6.625 L 13.84375 -36.5625 L 9.359375 -36.5625 C 8.515625 -36.5625 7.8125 -36.46875 7.25 -36.28125 C 6.6875 -36.101562 6.222656 -35.84375 5.859375 -35.5 C 5.503906 -35.164062 5.238281 -34.753906 5.0625 -34.265625 C 4.894531 -33.773438 4.773438 -33.21875 4.703125 -32.59375 L 4.328125 -29.125 L 0.546875 -29.125 L 0.84375 -39.984375 L 35.734375 -39.984375 L 36.015625 -29.125 L 32.265625 -29.125 L 31.859375 -32.59375 C 31.785156 -33.21875 31.660156 -33.773438 31.484375 -34.265625 C 31.316406 -34.753906 31.050781 -35.164062 30.6875 -35.5 C 30.332031 -35.84375 29.875 -36.101562 29.3125 -36.28125 C 28.75 -36.46875 28.046875 -36.5625 27.203125 -36.5625 L 22.71875 -36.5625 Z M 22.71875 -6.625 "/></g></g></g></svg>