<svg xmlns="http://www.w3.org/2000/svg" xmlns:xlink="http://www.w3.org/1999/xlink" width="2000" zoomAndPan="magnify" viewBox="0 0 1500 1499.999933" height="2000" preserveAspectRatio="xMidYMid meet" version="1.0"><defs><g/></defs><path fill="#3d358b" d="M 1500 750 C 1500 762.273438 1499.699219 774.542969 1499.097656 786.800781 C 1498.496094 799.058594 1497.589844 811.296875 1496.386719 823.511719 C 1495.183594 835.726562 1493.683594 847.90625 1491.882812 860.046875 C 1490.082031 872.1875 1487.984375 884.277344 1485.589844 896.316406 C 1483.195312 908.355469 1480.507812 920.328125 1477.523438 932.234375 C 1474.542969 944.140625 1471.269531 955.96875 1467.707031 967.714844 C 1464.140625 979.460938 1460.292969 991.109375 1456.15625 1002.667969 C 1452.023438 1014.222656 1447.605469 1025.671875 1442.910156 1037.011719 C 1438.210938 1048.351562 1433.238281 1059.570312 1427.992188 1070.664062 C 1422.742188 1081.761719 1417.226562 1092.722656 1411.441406 1103.546875 C 1405.65625 1114.371094 1399.605469 1125.046875 1393.296875 1135.578125 C 1386.984375 1146.105469 1380.421875 1156.472656 1373.601562 1166.675781 C 1366.78125 1176.882812 1359.71875 1186.914062 1352.40625 1196.773438 C 1345.09375 1206.632812 1337.542969 1216.304688 1329.757812 1225.792969 C 1321.972656 1235.28125 1313.957031 1244.574219 1305.714844 1253.667969 C 1297.46875 1262.761719 1289.007812 1271.652344 1280.328125 1280.328125 C 1271.652344 1289.007812 1262.765625 1297.46875 1253.667969 1305.714844 C 1244.574219 1313.957031 1235.28125 1321.972656 1225.792969 1329.757812 C 1216.308594 1337.542969 1206.632812 1345.09375 1196.773438 1352.40625 C 1186.914062 1359.71875 1176.882812 1366.78125 1166.675781 1373.601562 C 1156.472656 1380.421875 1146.105469 1386.984375 1135.578125 1393.296875 C 1125.050781 1399.605469 1114.371094 1405.65625 1103.546875 1411.441406 C 1092.722656 1417.226562 1081.761719 1422.742188 1070.667969 1427.992188 C 1059.570312 1433.238281 1048.351562 1438.210938 1037.011719 1442.910156 C 1025.671875 1447.605469 1014.222656 1452.023438 1002.667969 1456.15625 C 991.109375 1460.292969 979.460938 1464.140625 967.714844 1467.707031 C 955.96875 1471.269531 944.140625 1474.539062 932.234375 1477.523438 C 920.328125 1480.503906 908.355469 1483.195312 896.316406 1485.589844 C 884.277344 1487.984375 872.1875 1490.082031 860.046875 1491.882812 C 847.90625 1493.683594 835.726562 1495.183594 823.511719 1496.386719 C 811.296875 1497.589844 799.058594 1498.492188 786.800781 1499.097656 C 774.542969 1499.699219 762.273438 1500 750 1500 C 737.726562 1500 725.457031 1499.699219 713.199219 1499.097656 C 700.941406 1498.492188 688.703125 1497.589844 676.488281 1496.386719 C 664.273438 1495.183594 652.09375 1493.683594 639.953125 1491.882812 C 627.8125 1490.082031 615.722656 1487.984375 603.683594 1485.589844 C 591.644531 1483.195312 579.671875 1480.503906 567.765625 1477.523438 C 555.859375 1474.539062 544.03125 1471.269531 532.285156 1467.707031 C 520.539062 1464.140625 508.890625 1460.292969 497.332031 1456.15625 C 485.777344 1452.023438 474.328125 1447.605469 462.988281 1442.910156 C 451.648438 1438.210938 440.429688 1433.238281 429.332031 1427.992188 C 418.238281 1422.742188 407.277344 1417.226562 396.453125 1411.441406 C 385.628906 1405.65625 374.949219 1399.605469 364.421875 1393.296875 C 353.894531 1386.984375 343.527344 1380.421875 333.324219 1373.601562 C 323.117188 1366.78125 313.085938 1359.71875 303.226562 1352.40625 C 293.367188 1345.09375 283.691406 1337.542969 274.207031 1329.757812 C 264.71875 1321.972656 255.425781 1313.957031 246.332031 1305.714844 C 237.234375 1297.46875 228.347656 1289.007812 219.671875 1280.328125 C 210.992188 1271.652344 202.53125 1262.761719 194.285156 1253.667969 C 186.042969 1244.574219 178.027344 1235.28125 170.242188 1225.792969 C 162.457031 1216.304688 154.90625 1206.632812 147.59375 1196.773438 C 140.28125 1186.914062 133.21875 1176.882812 126.398438 1166.675781 C 119.578125 1156.472656 113.015625 1146.105469 106.703125 1135.578125 C 100.394531 1125.046875 94.34375 1114.371094 88.558594 1103.546875 C 82.773438 1092.722656 77.257812 1081.761719 72.007812 1070.664062 C 66.761719 1059.570312 61.789062 1048.351562 57.089844 1037.011719 C 52.394531 1025.671875 47.976562 1014.222656 43.84375 1002.667969 C 39.707031 991.109375 35.859375 979.460938 32.292969 967.714844 C 28.730469 955.96875 25.460938 944.140625 22.476562 932.234375 C 19.496094 920.328125 16.804688 908.355469 14.410156 896.316406 C 12.015625 884.277344 9.917969 872.1875 8.117188 860.046875 C 6.316406 847.90625 4.816406 835.726562 3.613281 823.511719 C 2.410156 811.296875 1.503906 799.058594 0.902344 786.800781 C 0.300781 774.542969 0 762.273438 0 750 C 0 737.726562 0.300781 725.457031 0.902344 713.199219 C 1.503906 700.941406 2.410156 688.703125 3.613281 676.488281 C 4.816406 664.273438 6.316406 652.09375 8.117188 639.953125 C 9.917969 627.8125 12.015625 615.71875 14.410156 603.683594 C 16.804688 591.644531 19.496094 579.671875 22.476562 567.765625 C 25.460938 555.859375 28.730469 544.03125 32.292969 532.285156 C 35.859375 520.539062 39.707031 508.890625 43.84375 497.332031 C 47.976562 485.777344 52.394531 474.328125 57.089844 462.988281 C 61.789062 451.648438 66.761719 440.429688 72.007812 429.332031 C 77.257812 418.238281 82.773438 407.277344 88.558594 396.453125 C 94.34375 385.628906 100.394531 374.949219 106.703125 364.421875 C 113.015625 353.894531 119.578125 343.527344 126.398438 333.324219 C 133.21875 323.117188 140.28125 313.085938 147.59375 303.226562 C 154.90625 293.367188 162.457031 283.691406 170.242188 274.203125 C 178.027344 264.71875 186.042969 255.425781 194.285156 246.332031 C 202.53125 237.234375 210.992188 228.347656 219.671875 219.667969 C 228.347656 210.992188 237.234375 202.53125 246.332031 194.285156 C 255.425781 186.042969 264.71875 178.027344 274.207031 170.242188 C 283.691406 162.457031 293.367188 154.90625 303.226562 147.59375 C 313.085938 140.28125 323.117188 133.21875 333.324219 126.398438 C 343.527344 119.578125 353.894531 113.015625 364.421875 106.703125 C 374.949219 100.394531 385.628906 94.34375 396.453125 88.558594 C 407.277344 82.773438 418.238281 77.257812 429.332031 72.007812 C 440.429688 66.761719 451.648438 61.789062 462.988281 57.089844 C 474.328125 52.394531 485.777344 47.976562 497.332031 43.84375 C 508.890625 39.707031 520.539062 35.859375 532.285156 32.292969 C 544.03125 28.730469 555.859375 25.457031 567.765625 22.476562 C 579.671875 19.492188 591.644531 16.804688 603.683594 14.410156 C 615.722656 12.015625 627.8125 9.917969 639.953125 8.117188 C 652.09375 6.316406 664.273438 4.816406 676.488281 3.613281 C 688.703125 2.410156 700.941406 1.503906 713.199219 0.902344 C 725.457031 0.300781 737.726562 0 750 0 C 762.273438 0 774.542969 0.300781 786.800781 0.902344 C 799.058594 1.503906 811.296875 2.410156 823.511719 3.613281 C 835.726562 4.816406 847.90625 6.316406 860.046875 8.117188 C 872.1875 9.917969 884.277344 12.015625 896.316406 14.410156 C 908.355469 16.804688 920.328125 19.492188 932.234375 22.476562 C 944.140625 25.457031 955.96875 28.730469 967.714844 32.292969 C 979.460938 35.859375 991.109375 39.707031 1002.667969 43.84375 C 1014.222656 47.976562 1025.671875 52.394531 1037.011719 57.089844 C 1048.351562 61.789062 1059.570312 66.761719 1070.667969 72.007812 C 1081.761719 77.257812 1092.722656 82.773438 1103.546875 88.558594 C 1114.371094 94.34375 1125.050781 100.394531 1135.578125 106.703125 C 1146.105469 113.015625 1156.472656 119.578125 1166.675781 126.398438 C 1176.882812 133.21875 1186.914062 140.28125 1196.773438 147.59375 C 1206.632812 154.90625 1216.308594 162.457031 1225.792969 170.242188 C 1235.28125 178.027344 1244.574219 186.042969 1253.667969 194.285156 C 1262.765625 202.53125 1271.652344 210.992188 1280.328125 219.667969 C 1289.007812 228.347656 1297.46875 237.234375 1305.714844 246.332031 C 1313.957031 255.425781 1321.972656 264.71875 1329.757812 274.203125 C 1337.542969 283.691406 1345.09375 293.367188 1352.40625 303.226562 C 1359.71875 313.085938 1366.78125 323.117188 1373.601562 333.320312 C 1380.421875 343.527344 1386.984375 353.894531 1393.296875 364.421875 C 1399.605469 374.949219 1405.65625 385.628906 1411.441406 396.453125 C 1417.226562 407.277344 1422.742188 418.238281 1427.992188 429.332031 C 1433.238281 440.429688 1438.210938 451.648438 1442.910156 462.988281 C 1447.605469 474.328125 1452.023438 485.777344 1456.15625 497.332031 C 1460.292969 508.890625 1464.140625 520.539062 1467.707031 532.285156 C 1471.269531 544.03125 1474.539062 555.859375 1477.523438 567.765625 C 1480.507812 579.671875 1483.195312 591.644531 1485.589844 603.683594 C 1487.984375 615.71875 1490.082031 627.8125 1491.882812 639.953125 C 1493.683594 652.09375 1495.183594 664.273438 1496.386719 676.488281 C 1497.589844 688.703125 1498.496094 700.941406 1499.097656 713.199219 C 1499.699219 725.457031 1500 737.726562 1500 750 Z M 1500 750 " fill-opacity="1" fill-rule="nonzero"/><path fill="#7679ee" d="M 1451.5 750 C 1451.5 761.480469 1451.21875 772.953125 1450.65625 784.421875 C 1450.09375 795.886719 1449.246094 807.332031 1448.121094 818.757812 C 1446.996094 830.183594 1445.59375 841.574219 1443.90625 852.929688 C 1442.222656 864.289062 1440.261719 875.597656 1438.019531 886.855469 C 1435.78125 898.117188 1433.265625 909.3125 1430.476562 920.449219 C 1427.6875 931.585938 1424.625 942.648438 1421.292969 953.632812 C 1417.960938 964.621094 1414.359375 975.519531 1410.492188 986.328125 C 1406.625 997.136719 1402.496094 1007.84375 1398.101562 1018.453125 C 1393.707031 1029.058594 1389.058594 1039.550781 1384.148438 1049.929688 C 1379.238281 1060.308594 1374.078125 1070.558594 1368.667969 1080.683594 C 1363.253906 1090.808594 1357.597656 1100.796875 1351.695312 1110.644531 C 1345.792969 1120.488281 1339.652344 1130.1875 1333.277344 1139.730469 C 1326.898438 1149.277344 1320.289062 1158.660156 1313.449219 1167.882812 C 1306.609375 1177.105469 1299.550781 1186.152344 1292.265625 1195.027344 C 1284.984375 1203.902344 1277.488281 1212.59375 1269.777344 1221.097656 C 1262.066406 1229.605469 1254.152344 1237.917969 1246.035156 1246.035156 C 1237.917969 1254.152344 1229.605469 1262.066406 1221.097656 1269.777344 C 1212.59375 1277.488281 1203.902344 1284.984375 1195.027344 1292.265625 C 1186.152344 1299.550781 1177.105469 1306.609375 1167.882812 1313.449219 C 1158.660156 1320.289062 1149.277344 1326.898438 1139.734375 1333.277344 C 1130.1875 1339.652344 1120.492188 1345.792969 1110.644531 1351.695312 C 1100.796875 1357.597656 1090.808594 1363.253906 1080.683594 1368.667969 C 1070.558594 1374.078125 1060.308594 1379.238281 1049.929688 1384.148438 C 1039.550781 1389.058594 1029.058594 1393.707031 1018.453125 1398.101562 C 1007.847656 1402.496094 997.136719 1406.625 986.328125 1410.492188 C 975.519531 1414.359375 964.621094 1417.960938 953.632812 1421.292969 C 942.648438 1424.625 931.585938 1427.6875 920.449219 1430.476562 C 909.3125 1433.265625 898.117188 1435.78125 886.855469 1438.019531 C 875.597656 1440.261719 864.289062 1442.222656 852.929688 1443.90625 C 841.574219 1445.589844 830.183594 1446.996094 818.757812 1448.121094 C 807.332031 1449.246094 795.886719 1450.089844 784.421875 1450.65625 C 772.953125 1451.21875 761.480469 1451.5 750 1451.5 C 738.519531 1451.5 727.046875 1451.21875 715.578125 1450.65625 C 704.113281 1450.089844 692.667969 1449.246094 681.242188 1448.121094 C 669.816406 1446.996094 658.425781 1445.59375 647.070312 1443.90625 C 635.710938 1442.222656 624.402344 1440.261719 613.144531 1438.019531 C 601.882812 1435.78125 590.6875 1433.265625 579.550781 1430.476562 C 568.414062 1427.6875 557.351562 1424.625 546.367188 1421.292969 C 535.378906 1417.960938 524.480469 1414.359375 513.671875 1410.492188 C 502.863281 1406.625 492.152344 1402.496094 481.546875 1398.101562 C 470.941406 1393.707031 460.449219 1389.058594 450.070312 1384.148438 C 439.691406 1379.238281 429.441406 1374.078125 419.316406 1368.667969 C 409.191406 1363.253906 399.203125 1357.597656 389.355469 1351.695312 C 379.507812 1345.792969 369.8125 1339.652344 360.265625 1333.277344 C 350.722656 1326.898438 341.339844 1320.289062 332.117188 1313.449219 C 322.894531 1306.609375 313.847656 1299.550781 304.972656 1292.265625 C 296.097656 1284.984375 287.40625 1277.488281 278.902344 1269.777344 C 270.394531 1262.066406 262.082031 1254.152344 253.964844 1246.035156 C 245.847656 1237.917969 237.933594 1229.605469 230.222656 1221.097656 C 222.511719 1212.59375 215.015625 1203.902344 207.734375 1195.027344 C 200.449219 1186.152344 193.390625 1177.105469 186.550781 1167.882812 C 179.710938 1158.660156 173.101562 1149.277344 166.722656 1139.730469 C 160.347656 1130.1875 154.207031 1120.488281 148.304688 1110.644531 C 142.402344 1100.796875 136.746094 1090.808594 131.332031 1080.683594 C 125.921875 1070.558594 120.761719 1060.308594 115.851562 1049.929688 C 110.941406 1039.550781 106.292969 1029.058594 101.898438 1018.453125 C 97.503906 1007.84375 93.375 997.136719 89.507812 986.328125 C 85.640625 975.519531 82.039062 964.621094 78.707031 953.632812 C 75.375 942.648438 72.3125 931.585938 69.523438 920.449219 C 66.734375 909.3125 64.21875 898.117188 61.980469 886.855469 C 59.738281 875.597656 57.777344 864.289062 56.09375 852.929688 C 54.40625 841.574219 53.003906 830.183594 51.878906 818.757812 C 50.753906 807.332031 49.910156 795.886719 49.34375 784.421875 C 48.78125 772.953125 48.5 761.480469 48.5 750 C 48.5 738.519531 48.78125 727.046875 49.34375 715.578125 C 49.910156 704.113281 50.753906 692.667969 51.878906 681.242188 C 53.003906 669.816406 54.40625 658.425781 56.09375 647.070312 C 57.777344 635.710938 59.738281 624.402344 61.980469 613.144531 C 64.21875 601.882812 66.734375 590.6875 69.523438 579.550781 C 72.3125 568.414062 75.375 557.351562 78.707031 546.367188 C 82.039062 535.378906 85.640625 524.480469 89.507812 513.671875 C 93.375 502.863281 97.503906 492.152344 101.898438 481.546875 C 106.292969 470.941406 110.941406 460.449219 115.851562 450.070312 C 120.761719 439.691406 125.921875 429.441406 131.332031 419.316406 C 136.746094 409.191406 142.402344 399.203125 148.304688 389.355469 C 154.207031 379.507812 160.347656 369.8125 166.722656 360.265625 C 173.101562 350.722656 179.710938 341.339844 186.550781 332.117188 C 193.390625 322.894531 200.449219 313.847656 207.734375 304.972656 C 215.015625 296.097656 222.511719 287.40625 230.222656 278.902344 C 237.933594 270.394531 245.847656 262.082031 253.964844 253.964844 C 262.082031 245.847656 270.394531 237.933594 278.902344 230.222656 C 287.40625 222.511719 296.097656 215.015625 304.972656 207.734375 C 313.847656 200.449219 322.894531 193.390625 332.117188 186.550781 C 341.339844 179.710938 350.722656 173.101562 360.265625 166.722656 C 369.8125 160.347656 379.507812 154.207031 389.355469 148.304688 C 399.203125 142.402344 409.191406 136.742188 419.316406 131.332031 C 429.441406 125.921875 439.691406 120.761719 450.070312 115.851562 C 460.449219 110.941406 470.941406 106.292969 481.546875 101.898438 C 492.152344 97.503906 502.863281 93.375 513.671875 89.507812 C 524.480469 85.640625 535.378906 82.039062 546.367188 78.707031 C 557.351562 75.375 568.414062 72.3125 579.550781 69.523438 C 590.6875 66.734375 601.882812 64.21875 613.144531 61.980469 C 624.402344 59.738281 635.710938 57.777344 647.070312 56.09375 C 658.425781 54.40625 669.816406 53.003906 681.242188 51.878906 C 692.667969 50.753906 704.113281 49.910156 715.578125 49.34375 C 727.046875 48.78125 738.519531 48.5 750 48.5 C 761.480469 48.5 772.953125 48.78125 784.421875 49.34375 C 795.886719 49.910156 807.332031 50.753906 818.757812 51.878906 C 830.183594 53.003906 841.574219 54.40625 852.929688 56.09375 C 864.289062 57.777344 875.597656 59.738281 886.855469 61.980469 C 898.117188 64.21875 909.3125 66.734375 920.449219 69.523438 C 931.585938 72.3125 942.648438 75.375 953.632812 78.707031 C 964.621094 82.039062 975.519531 85.640625 986.328125 89.507812 C 997.136719 93.375 1007.84375 97.503906 1018.453125 101.898438 C 1029.058594 106.292969 1039.550781 110.941406 1049.929688 115.851562 C 1060.308594 120.761719 1070.558594 125.921875 1080.683594 131.332031 C 1090.808594 136.742188 1100.796875 142.402344 1110.644531 148.304688 C 1120.492188 154.207031 1130.1875 160.347656 1139.734375 166.722656 C 1149.277344 173.101562 1158.660156 179.710938 1167.882812 186.550781 C 1177.105469 193.390625 1186.152344 200.449219 1195.027344 207.734375 C 1203.902344 215.015625 1212.59375 222.511719 1221.097656 230.222656 C 1229.605469 237.933594 1237.917969 245.847656 1246.035156 253.964844 C 1254.152344 262.082031 1262.066406 270.394531 1269.777344 278.902344 C 1277.488281 287.40625 1284.984375 296.097656 1292.265625 304.972656 C 1299.550781 313.847656 1306.609375 322.894531 1313.449219 332.117188 C 1320.289062 341.339844 1326.898438 350.722656 1333.277344 360.265625 C 1339.652344 369.8125 1345.792969 379.507812 1351.695312 389.355469 C 1357.597656 399.203125 1363.253906 409.191406 1368.667969 419.316406 C 1374.078125 429.441406 1379.238281 439.691406 1384.148438 450.070312 C 1389.058594 460.449219 1393.707031 470.941406 1398.101562 481.546875 C 1402.496094 492.152344 1406.625 502.863281 1410.492188 513.671875 C 1414.359375 524.480469 1417.960938 535.378906 1421.292969 546.367188 C 1424.625 557.351562 1427.6875 568.414062 1430.476562 579.550781 C 1433.265625 590.6875 1435.78125 601.882812 1438.019531 613.144531 C 1440.261719 624.402344 1442.222656 635.710938 1443.90625 647.070312 C 1445.59375 658.425781 1446.996094 669.816406 1448.121094 681.242188 C 1449.246094 692.667969 1450.09375 704.113281 1450.65625 715.578125 C 1451.21875 727.046875 1451.5 738.519531 1451.5 750 Z M 1451.5 750 " fill-opacity="1" fill-rule="nonzero"/><path fill="#ffffff" d="M 1408.5 750 C 1408.5 386.5 1113.5 91.5 750 91.5 C 386.5 91.5 91.5 386.5 91.5 750 C 91.5 753.5 91.5 757.5 92 761 C 97.5 414.5 380 135.5 728 135.5 C 1079.5 135.5 1364.5 420.5 1364.5 772 C 1364.5 1120 1085.5 1402.5 739 1408 C 742.5 1408.5 746.5 1408.5 750 1408.5 C 1113.5 1408.5 1408.5 1113.5 1408.5 750 Z M 1408.5 750 " fill-opacity="1" fill-rule="evenodd"/><path fill="#d9d9d9" d="M 707.5 905 L 682.5 905 L 682.5 987.5 C 682.5 1030.5 747.5 1030.5 747.5 987.5 C 747.5 976.5 764.5 976.5 764.5 987.5 C 764.5 1014.5 742.5 1037 715 1037 C 688 1037 666 1014.5 666 987.5 L 666 905 C 649.5 905 632.5 908.5 632.5 896.5 C 632.5 885 649.5 888.5 666 888.5 L 666 801 C 666 771 620 771 620 801 C 620 812 603 812 603 801 C 603 749 682.5 749 682.5 801 L 682.5 888.5 C 698.5 888.5 716 885 716 896.5 C 716 901.5 712.5 905 707.5 905 Z M 684 1100.5 C 573 1100.5 482.5 1010 482.5 899.5 C 482.5 788.5 573 698 684 698 C 794.5 698 885 788.5 885 899.5 C 885 1010 794.5 1100.5 684 1100.5 Z M 684 714.5 C 582 714.5 499 797.5 499 899.5 C 499 1001 582 1084 684 1084 C 785.5 1084 868.5 1001 868.5 899.5 C 868.5 797.5 785.5 714.5 684 714.5 Z M 894 1176.5 L 473.5 1176.5 C 472 1176.5 470 1176 468.5 1175 C 400.5 1122.5 362 1058.5 354.5 984.5 C 341 845 440.5 704.5 495.5 638.5 C 463 637 449 596 474 575.5 C 448.5 554 464 512 497 512 L 561.5 512 C 551.5 407 489.5 365.5 489 365 C 479 359 490.5 338 502 330.5 C 538 308.5 615.5 341.5 663 353.5 C 691 360.5 710 352 737.5 344 C 785 329.5 872.5 300.5 882.5 357 C 883 360 881.5 363.5 878.5 365 C 878 365.5 816 407 806 512 L 870.5 512 C 891 512 907 529 906 549.5 C 967 536 1067.5 526 1143 579.5 C 1152 586 1142.5 599.5 1133.5 593 C 1059 540.5 956.5 554.5 900 568 C 898 570.5 896 573 893.5 575.5 C 902.5 583 907.5 595 906 607.5 C 956 640.5 1028 679 1094 682.5 C 1104.5 683 1104 699.5 1093 699 C 1025 695.5 951.5 657 899.5 623.5 C 893.5 632 883.5 638 872 638.5 C 927 704.5 1026.5 845 1013 984.5 C 1005.5 1058.5 967 1122.5 899 1175 C 897.5 1176 895.5 1176.5 894 1176.5 Z M 517 638.5 C 466.5 697 357 841.5 371.5 983 C 378 1051.5 413.5 1111 476.5 1160 L 891 1160 C 954 1111 989.5 1051.5 996.5 983 C 1010.5 841.5 901 697 850.5 638.5 Z M 854 622 C 869 621.5 882 625.5 888.5 608.5 C 892.5 599.5 885.5 583.5 870.5 583.5 L 497 583.5 C 472 583.5 472 622 497 622 Z M 789.5 512 C 798.5 414 848.5 367.5 864.5 355 C 853.5 324 779.5 348.5 742 360 L 708 369.5 C 633 433 673.5 455.5 653.5 459.5 C 649 460.5 644.5 457.5 644 453 C 638.5 429 651 402 680 372.5 C 638 370.5 518 313 503 355 C 519 367.5 569.5 414 578 512 Z M 887 557 C 894.5 542 883 529 870.5 529 C 746 529 621.5 529 497 529 C 472 529 472 567 497 567 L 870.5 567 C 877.5 567 884 563 887 557 Z M 684 1140 C 551 1140 443 1032 443 899.5 C 443 766.5 551 658.5 684 658.5 C 816.5 658.5 924.5 766.5 924.5 899.5 C 924.5 1032 816.5 1140 684 1140 Z M 684 675.5 C 560.5 675.5 460 776 460 899.5 C 460 1022.5 560.5 1123 684 1123 C 807.5 1123 907.5 1022.5 907.5 899.5 C 907.5 776 807.5 675.5 684 675.5 Z M 684 675.5 " fill-opacity="1" fill-rule="evenodd"/><g fill="#d9d9d9" fill-opacity="1"><g transform="translate(703.795293, 1292.353933)"><g><path d="M 4.734375 -44.03125 L 42.8125 -44.03125 L 42.8125 -33.46875 L 18.875 -33.46875 L 18.875 -27.390625 L 39.359375 -27.390625 L 39.359375 -17.28125 L 18.875 -17.28125 L 18.875 -10.5625 L 43.265625 -10.5625 L 43.265625 0 L 4.734375 0 Z M 4.734375 -44.03125 "/></g></g></g><g fill="#d9d9d9" fill-opacity="1"><g transform="translate(750.000455, 1292.353933)"><g><path d="M 4.734375 -44.03125 L 42.8125 -44.03125 L 42.8125 -33.46875 L 18.875 -33.46875 L 18.875 -27.390625 L 39.359375 -27.390625 L 39.359375 -17.28125 L 18.875 -17.28125 L 18.875 -10.5625 L 43.265625 -10.5625 L 43.265625 0 L 4.734375 0 Z M 4.734375 -44.03125 "/></g></g></g></svg>